<?xml version="1.0" standalone="no"?><!DOCTYPE svg PUBLIC "-//W3C//DTD SVG 1.1//EN" "http://www.w3.org/Graphics/SVG/1.1/DTD/svg11.dtd"><svg t="1636524813303" class="icon" viewBox="0 0 1024 1024" version="1.1" xmlns="http://www.w3.org/2000/svg" p-id="5144" xmlns:xlink="http://www.w3.org/1999/xlink" width="200" height="200"><defs><style type="text/css"></style></defs><path d="M512 576c-141.312 0-256-114.688-256-256S370.688 64 512 64s256 114.688 256 256-114.688 256-256 256z m0-448c-105.984 0-192 86.016-192 192s86.016 192 192 192 192-86.016 192-192-86.016-192-192-192z" p-id="5145" fill="#13227a"></path><path d="M96.256 992.256c-17.92 0-31.744-14.336-31.744-31.744 0-247.296 200.704-448 448-448 17.92 0 31.744 14.336 31.744 31.744S529.92 576 512.512 576c-211.968 0-384 172.032-384 384-0.512 17.92-14.848 32.256-32.256 32.256z m843.264-35.84c-8.704 0-16.384-3.584-22.528-9.728L628.736 658.944c-12.288-12.288-12.288-32.256 0-44.544 12.288-12.288 32.256-12.288 45.056 0l287.744 287.744c12.288 11.776 12.8 31.232 1.536 43.52l-1.536 1.536c-5.632 5.632-13.312 9.216-22.016 9.216z" p-id="5146" fill="#13227a"></path><path d="M651.264 956.416c-8.704 0-16.384-3.584-22.528-9.728-12.288-11.776-12.8-31.232-1.536-43.52l1.536-1.536 288.256-287.744c12.288-12.288 32.256-12.288 45.056 0 12.288 12.288 12.288 32.256 0 44.544L674.304 946.176c-6.144 6.656-14.336 10.24-23.04 10.24z" p-id="5147" fill="#13227a"></path></svg>