<?xml version="1.0" standalone="no"?><!DOCTYPE svg PUBLIC "-//W3C//DTD SVG 1.1//EN" "http://www.w3.org/Graphics/SVG/1.1/DTD/svg11.dtd"><svg t="1636524759773" class="icon" viewBox="0 0 1024 1024" version="1.1" xmlns="http://www.w3.org/2000/svg" p-id="3401" xmlns:xlink="http://www.w3.org/1999/xlink" width="200" height="200"><defs><style type="text/css"></style></defs><path d="M223 352h191.9c17.7 0 32-14.3 32-32s-14.3-32-32-32H223c-17.7 0-32 14.3-32 32s14.3 32 32 32z" p-id="3402" fill="#1296db"></path><path d="M671.8 896H160c-17.7 0-32-14.3-32-32V160c0-17.7 14.3-32 32-32h383.9v160c0 35.3 28.6 64 64 64h159.9v160c0 17.7 14.3 32 32 32s32-14.3 32-32V270.2c0-8.5-3.3-16.6-9.3-22.6L649.2 73.4c-6-6-14.2-9.4-22.7-9.4H128c-35.3 0-64 28.7-64 64v768c0 35.3 28.6 64 64 64h543.9c17.7 0 32-14.3 32-32-0.1-17.7-14.4-32-32.1-32z m-64-768l159.9 160h-128c-17.7 0-32-14.3-32-32V128z" p-id="3403" fill="#1296db"></path><path d="M223 672c-17.7 0-32 14.3-32 32s14.3 32 32 32h320.9c17.7 0 32-14.3 32-32s-14.3-32-32-32H223zM638.8 512c0-17.7-14.3-32-32-32H223c-17.7 0-32 14.3-32 32s14.3 32 32 32h383.9c17.6 0 31.9-14.3 31.9-32zM735.8 544c-52.9 0-95.8 42.9-95.8 95.8s42.9 95.8 95.8 95.8c35 0 65.7-18.8 82.4-46.9 24.9 10.7 47.3 26.1 66.2 45.4 11.1 11.3 28.8 12.9 41.5 3.4l0.9-0.7c15.1-11.4 16.9-33.5 3.7-47-28.1-28.8-62.1-51-100.1-65-7.3-45.8-46.9-80.8-94.6-80.8z m0 127.6c-17.5 0-31.8-14.3-31.8-31.8s14.3-31.8 31.8-31.8 31.8 14.3 31.8 31.8-14.3 31.8-31.8 31.8zM864.2 768.3c-35 0-65.7 18.8-82.4 46.9-24.9-10.7-47.3-26.1-66.2-45.4-11.1-11.3-28.8-12.9-41.5-3.4l-0.9 0.7c-15.1 11.4-16.9 33.5-3.7 47 28.1 28.8 62.1 51 100.1 65 7.2 45.7 46.8 80.7 94.6 80.7 52.9 0 95.8-42.9 95.8-95.8s-42.9-95.7-95.8-95.7z m0 127.6c-17.5 0-31.8-14.3-31.8-31.8s14.3-31.8 31.8-31.8 31.8 14.3 31.8 31.8-14.3 31.8-31.8 31.8z" p-id="3404" fill="#1296db"></path></svg>