<?xml version="1.0" standalone="no"?><!DOCTYPE svg PUBLIC "-//W3C//DTD SVG 1.1//EN" "http://www.w3.org/Graphics/SVG/1.1/DTD/svg11.dtd"><svg t="1636525510923" class="icon" viewBox="0 0 1024 1024" version="1.1" xmlns="http://www.w3.org/2000/svg" p-id="6802" width="200" height="200" xmlns:xlink="http://www.w3.org/1999/xlink"><defs><style type="text/css"></style></defs><path d="M494.08 547.953778a199.111111 199.111111 0 1 1 0-398.222222 199.111111 199.111111 0 0 1 0 398.222222z m0-56.888889a142.222222 142.222222 0 1 0 0-284.444445 142.222222 142.222222 0 0 0 0 284.444445z" p-id="6803" fill="#d4237a"></path><path d="M731.932444 600.689778a28.444444 28.444444 0 0 1-43.235555 36.977778 256 256 0 0 0-450.616889 166.286222 28.444444 28.444444 0 1 1-56.888889 0 312.888889 312.888889 0 0 1 550.741333-203.264z" p-id="6804" fill="#d4237a"></path><path d="M696.32 793.770667l-60.302222-60.302223a28.444444 28.444444 0 1 0-40.277334 40.220445l80.440889 80.440889a28.444444 28.444444 0 0 0 40.220445 0l160.938666-160.881778a28.444444 28.444444 0 1 0-40.220444-40.277333l-140.8 140.8z" p-id="6805" fill="#d4237a"></path></svg>